<svg width="112" height="23" viewBox="0 0 112 23" fill="none" xmlns="http://www.w3.org/2000/svg">
<path d="M6.82766 8.44739L6.81471 17.6391C6.81471 19.8513 9.08168 20.8674 10.7182 19.6713L19.2982 13.412C20.8052 12.3144 20.5936 10.1065 18.9139 9.29626L6.20586 3.0541C4.15048 2.10234 2.63916 3.44852 2.63916 5.27058V6.86542" stroke="url(#paint0_linear_2601_119)" stroke-width="3" stroke-miterlimit="10" stroke-linecap="round" stroke-linejoin="round"/>
<path d="M35.0496 5.06938C35.2295 4.38949 35.8446 3.91597 36.5479 3.91597C37.5677 3.91597 38.3096 4.88377 38.0447 5.86852L34.7259 18.2069C34.3356 19.658 33.0199 20.6666 31.5171 20.6666C30.0144 20.6666 28.6987 19.658 28.3084 18.2069L25.0276 6.00989C24.7435 4.95384 25.5391 3.91597 26.6327 3.91597C27.3892 3.91597 28.0503 4.42683 28.2411 5.1589L30.802 14.9839C31.0196 15.8188 32.2042 15.821 32.4249 14.987L35.0496 5.06938Z" fill="#050023"/>
<path d="M41.6159 20.6666C40.6874 20.6666 39.9347 19.9139 39.9347 18.9855V5.59709C39.9347 4.66863 40.6874 3.91597 41.6159 3.91597C42.5443 3.91597 43.297 4.66863 43.297 5.59709V18.9855C43.297 19.9139 42.5443 20.6666 41.6159 20.6666Z" fill="#050023"/>
<path d="M49.3261 20.8816C48.6846 20.8816 48.0054 20.8251 47.2884 20.7119C46.9283 20.655 46.5863 20.5858 46.2623 20.5042C45.7076 20.3645 45.3526 19.8452 45.3526 19.2731C45.3526 18.3461 46.2588 17.6919 47.1708 17.858C47.8811 17.9874 48.5769 18.0521 49.2582 18.0521C51.1223 18.0521 52.0544 17.3919 52.0544 16.0715C52.0544 15.7169 51.9865 15.4151 51.8506 15.1661C51.7148 14.9171 51.4846 14.6945 51.16 14.4983C50.8355 14.2946 50.3827 14.0946 49.8016 13.8984L48.6695 13.5249C47.4997 13.125 46.5827 12.5327 45.9186 11.748C45.262 10.9633 44.9337 9.96732 44.9337 8.76007C44.9337 7.70372 45.1677 6.79829 45.6356 6.04375C46.1035 5.28922 46.8016 4.712 47.7299 4.3121C48.6657 3.90465 49.8204 3.70093 51.194 3.70093C51.828 3.70093 52.4393 3.73865 53.028 3.81411C53.2347 3.84027 53.4329 3.87007 53.6224 3.90349C54.2103 4.00719 54.6015 4.53985 54.6015 5.13684C54.6015 6.04437 53.7186 6.69933 52.8165 6.59999C52.3954 6.55361 51.9602 6.53043 51.511 6.53043C49.3827 6.53043 48.3186 7.18687 48.3186 8.49976C48.3186 8.8393 48.3789 9.12602 48.4997 9.35992C48.6204 9.59383 48.8242 9.8051 49.111 9.99373C49.4053 10.1748 49.8167 10.3559 50.345 10.537L51.4657 10.9105C52.7563 11.3481 53.7374 11.9555 54.4091 12.7327C55.0883 13.5023 55.4279 14.5172 55.4279 15.7772C55.4279 16.826 55.1864 17.7352 54.7034 18.5049C54.2279 19.2669 53.5336 19.8555 52.6204 20.2705C51.7072 20.6779 50.6091 20.8816 49.3261 20.8816Z" fill="#050023"/>
<path d="M67.6428 20.6666C66.917 20.6666 66.283 20.1758 66.1011 19.4732L65.4067 16.7907C65.3109 16.4206 64.9769 16.162 64.5946 16.162H60.7086C60.3262 16.162 59.9922 16.4206 59.8964 16.7907L59.1978 19.4895C59.0184 20.1825 58.3931 20.6666 57.6772 20.6666C56.6417 20.6666 55.8896 19.6822 56.1617 18.6831L59.5292 6.31898C59.9156 4.90033 61.2039 3.91597 62.6742 3.91597C64.1445 3.91597 65.4329 4.90033 65.8192 6.31898L69.1793 18.6556C69.4552 19.6686 68.6926 20.6666 67.6428 20.6666ZM61.0645 12.262C60.9279 12.7929 61.3288 13.3099 61.877 13.3099H63.4132C63.9618 13.3099 64.3628 12.792 64.2254 12.2608L63.4549 9.28299C63.2378 8.44395 62.0461 8.44483 61.8302 9.28419L61.0645 12.262Z" fill="#050023"/>
<path d="M78.451 5.06938C78.6309 4.38949 79.2461 3.91597 79.9494 3.91597C80.9691 3.91597 81.711 4.88377 81.4461 5.86852L78.1273 18.2069C77.737 19.658 76.4213 20.6666 74.9186 20.6666C73.4158 20.6666 72.1001 19.658 71.7098 18.2069L68.429 6.00989C68.145 4.95384 68.9406 3.91597 70.0341 3.91597C70.7907 3.91597 71.4518 4.42683 71.6426 5.1589L74.2035 14.9839C74.4211 15.8188 75.6056 15.821 75.8263 14.987L78.451 5.06938Z" fill="#050023"/>
<path d="M86.189 16.9416C86.189 17.4049 86.5646 17.7805 87.0279 17.7805H91.7761C92.573 17.7805 93.2191 18.4266 93.2191 19.2236C93.2191 20.0205 92.573 20.6666 91.7761 20.6666H85.9035C84.2355 20.6666 82.8834 19.3144 82.8834 17.6464V6.93616C82.8834 5.26816 84.2355 3.91597 85.9035 3.91597H91.6628C92.4598 3.91597 93.1059 4.56204 93.1059 5.35901C93.1059 6.15599 92.4598 6.80206 91.6629 6.80206H87.0279C86.5646 6.80206 86.189 7.17767 86.189 7.641V9.82255C86.189 10.2859 86.5646 10.6615 87.0279 10.6615H90.5308C91.3278 10.6615 91.9738 11.3076 91.9738 12.1045C91.9738 12.9015 91.3278 13.5476 90.5308 13.5476H87.0279C86.5646 13.5476 86.189 13.9232 86.189 14.3865V16.9416Z" fill="#050023"/>
<path d="M104.591 20.6666C104.075 20.6666 103.594 20.4014 103.318 19.9642L100.018 14.7264C99.9238 14.5774 99.7599 14.487 99.5838 14.487C99.4151 14.487 99.2221 14.4838 99.0047 14.4776C98.5251 14.4637 98.1234 14.8438 98.1234 15.3236V19.0138C98.1234 19.9266 97.3834 20.6666 96.4706 20.6666C95.5578 20.6666 94.8178 19.9266 94.8178 19.0138V4.8788C94.8178 4.48245 95.0949 4.1385 95.4849 4.06789C96.7946 3.83079 98.1043 3.71225 99.414 3.71225C101.648 3.71225 103.32 4.15742 104.429 5.04777C105.546 5.93812 106.104 7.28119 106.104 9.07697C106.112 10.254 105.844 11.25 105.301 12.0649C104.925 12.6367 104.434 13.1081 103.827 13.4793C103.413 13.7332 103.235 14.2767 103.498 14.6856L105.856 18.3475C106.501 19.3487 105.782 20.6666 104.591 20.6666ZM98.1234 10.9902C98.1234 11.4253 98.4561 11.791 98.8908 11.8109C99.1271 11.8218 99.3543 11.8272 99.5725 11.8272C100.712 11.8272 101.554 11.6122 102.097 11.1821C102.648 10.752 102.923 10.0541 102.923 9.08829C102.923 8.15267 102.667 7.46227 102.154 7.0171C101.648 6.56438 100.878 6.33802 99.8442 6.33802C99.5108 6.33802 99.1748 6.35373 98.8362 6.38513C98.4245 6.42332 98.1234 6.77872 98.1234 7.19219V10.9902Z" fill="#050023"/>
<defs>
<linearGradient id="paint0_linear_2601_119" x1="1.66103" y1="22.2766" x2="22.9723" y2="10.3631" gradientUnits="userSpaceOnUse">
<stop stop-color="#C22EFF"/>
<stop offset="1" stop-color="#4378E5"/>
</linearGradient>
</defs>
</svg>
